<?xml version="1.0" encoding="UTF-8" standalone="no" ?>
<!DOCTYPE svg PUBLIC "-//W3C//DTD SVG 1.1//EN" "http://www.w3.org/Graphics/SVG/1.1/DTD/svg11.dtd">
<svg xmlns="http://www.w3.org/2000/svg" xmlns:xlink="http://www.w3.org/1999/xlink" version="1.1" width="1280" height="1024" viewBox="0 0 1280 1024" xml:space="preserve">
<desc>Created with Fabric.js 5.3.0</desc>
<defs>
</defs>
<g transform="matrix(1 0 0 1 640 512)" id="background-logo"  >
<rect style="stroke: none; stroke-width: 0; stroke-dasharray: none; stroke-linecap: butt; stroke-dashoffset: 0; stroke-linejoin: miter; stroke-miterlimit: 4; fill: rgb(255,255,255); fill-opacity: 0; fill-rule: nonzero; opacity: 1;"  paint-order="stroke"  x="-640" y="-512" rx="0" ry="0" width="1280" height="1024" />
</g>
<g transform="matrix(3.0353270282487257 0 0 3.035327028248726 640.6894092749357 410.8995027849937)" id="shape-826f0e5c-05d8-4408-920a-af5df3b2d62c"  >
<g style=""  paint-order="stroke"   >
		<g transform="matrix(1 0 0 1 0 0)" id="path-01_00000025420123394504988780000001191912318920422029_"  >
<path style="stroke: none; stroke-width: 1; stroke-dasharray: none; stroke-linecap: butt; stroke-dashoffset: 0; stroke-linejoin: miter; stroke-miterlimit: 4; fill: rgb(203,108,230); fill-opacity: 0.2; fill-rule: nonzero; opacity: 1;"  paint-order="stroke"  transform=" translate(-130.042875, -33.48963875099269)" d="M 181.52985 2.40231 C 182.94654 2.05587 184.26795 1.51376 185.70557000000002 1.25668 C 186.90448000000004 1.0423200000000001 188.10321000000002 0.8531200000000001 189.31299 0.71286 C 192.04737 0.39572000000000007 194.79657 0.15097000000000005 197.54883 0.07480000000000009 C 207.13922000000002 -0.19008999999999993 216.74329 0.68515 226.16052000000002 2.4937500000000004 C 235.62976000000003 4.31235 244.78668000000002 6.983980000000001 253.46478000000002 11.21873 C 253.80572 11.385110000000001 253.56097000000003 11.917950000000001 253.21191000000002 11.81846 C 248.04766 10.34629 242.86572 8.91245 237.68145 7.51121 C 228.50390000000002 5.030620000000001 219.17919 3.22422 209.69164 2.4798400000000003 C 205.03496 2.1144800000000004 200.38427000000001 2.0554 195.71654 2.1434100000000003 C 193.35008000000002 2.1880900000000003 190.98894 2.29063 188.62810000000002 2.46043 C 187.41399 2.54771 186.19603 2.63145 184.98058000000003 2.69688 C 183.83782000000002 2.75828 182.72124000000002 2.6097200000000003 181.57036000000002 2.7015200000000004 C 181.39648 2.71542 181.36646 2.44223 181.52985 2.40231 z M 260.08575 14.76571 C 260.08575 14.76571 255.52954000000003 16.91451 255.36871000000002 16.954430000000002 C 255.65643000000003 17.31979 258.87817 18.17049 258.87817 18.17049 C 258.87817 18.17049 255.68951 19.54305 255.16497 19.6014 C 255.19988 19.644730000000003 258.42535000000004 20.80355 258.42535000000004 20.80355 L 256.48541000000006 24.91146 C 256.48541000000006 24.91146 255.06299000000007 24.62752 254.35815000000005 24.34957 C 252.46057000000005 23.60128 250.54235000000006 22.90609 248.61029000000005 22.25179 C 249.23743000000005 27.32137 247.34894000000006 37.732749999999996 245.33740000000006 41.73104 C 239.96911000000006 52.401939999999996 232.61767000000006 57.88778 233.12622000000005 57.15377 C 233.61017000000004 56.45528 233.82434000000003 55.70553 234.17560000000006 54.94247 C 234.49567000000005 54.24728 234.88294000000005 53.58822 235.26666000000006 52.92733 C 236.04010000000005 51.59542 236.83087000000006 50.26791 237.56122000000005 48.91158 C 239.88471000000004 44.59652 241.67902000000004 40.01424 242.94342000000006 35.25509 C 244.15717000000006 30.686850000000003 244.10022000000006 24.399990000000003 244.25610000000006 20.86605 C 243.37671000000006 20.603720000000003 242.49633000000006 20.344810000000003 241.61139000000006 20.10189 C 236.40588000000005 18.67379 231.08844000000005 17.48751 225.71375000000006 16.59505 C 229.44532000000007 21.947470000000003 231.57618000000005 28.615920000000003 231.57618000000005 35.6014 C 231.57618000000005 48.01851 224.99336000000005 58.74093 215.53132000000005 63.645709999999994 C 216.55610000000004 63.597739999999995 217.58131000000006 63.55268999999999 218.60554000000005 63.50411 C 222.24696000000006 63.331379999999996 226.14759000000004 63.1346 229.69075000000004 62.230549999999994 C 230.25703000000004 62.08601999999999 230.51204000000004 62.81905 230.07002000000003 63.130089999999996 C 226.88106000000002 65.37411 223.23585000000003 66.02426 219.41115000000002 66.37801999999999 C 215.29976000000002 66.75814999999999 211.12410000000003 66.85238999999999 206.99764000000002 66.94149999999999 C 202.16420000000002 67.04587 197.33846000000003 66.93441999999999 192.51534 66.60238999999999 C 190.11086 66.43697999999999 187.72872 66.19271999999998 185.34108 65.86361999999998 C 182.90425000000002 65.52767999999999 180.6902 64.62740999999998 178.32539 64.06283999999998 C 178.00367 63.98592999999998 178.07429 63.47347999999998 178.40327 63.48739999999998 C 180.81922 63.58846999999998 183.24183 63.24215999999998 185.67670999999999 63.38339999999998 C 187.95558 63.51559999999998 190.23542999999998 63.64999999999998 192.51532999999998 63.76266999999998 C 192.56140999999997 63.764989999999976 192.60754999999997 63.76596999999998 192.65363999999997 63.76828999999998 C 183.06208999999996 58.92184999999998 176.36670999999996 48.12387999999998 176.36670999999996 35.601419999999976 C 176.36670999999996 28.938339999999975 178.29041999999995 22.642559999999975 181.62634999999995 17.487409999999976 C 180.46393999999995 17.841899999999974 179.30847999999995 18.219339999999974 178.16919999999993 18.639019999999977 C 176.51001999999994 19.250349999999976 174.87439999999992 19.938579999999977 173.23950999999994 20.611919999999976 C 171.56836999999993 21.300149999999977 164.68945999999994 24.124129999999976 164.68945999999994 24.124129999999976 C 164.68945999999994 24.124129999999976 165.99145999999993 18.859969999999976 171.36206999999993 16.049669999999978 C 171.10791999999992 16.087759999999978 170.85400999999993 16.11533999999998 170.60486999999992 16.10801999999998 C 169.9028399999999 16.08726999999998 166.2744299999999 16.822379999999978 166.2744299999999 16.822379999999978 C 166.2744299999999 16.822379999999978 168.82154999999992 12.057979999999977 174.9016299999999 9.975939999999976 C 173.1092699999999 9.072859999999977 170.0897399999999 5.568229999999977 170.1375899999999 5.240829999999977 C 170.1323399999999 5.2247199999999765 170.1272099999999 5.208599999999977 170.1219699999999 5.192729999999977 C 170.08961999999988 5.092879999999977 173.9863499999999 6.545509999999977 175.24513999999988 6.930769999999977 C 178.38600999999989 7.892199999999977 181.66115999999988 8.021099999999977 184.8930899999999 7.471789999999976 C 186.67592999999988 7.169419999999977 188.4669999999999 6.915149999999977 190.26393999999988 6.712629999999977 C 208.01521999999989 4.712509999999977 226.10457999999988 7.970079999999976 243.28548999999987 12.247909999999976 C 244.86867999999987 12.545269999999975 246.45571999999987 12.822369999999976 248.04836999999986 13.064559999999975 C 250.02443999999986 13.364849999999976 252.00844999999987 13.624619999999975 253.99032999999986 13.883899999999976 C 255.76404 14.11581 260.08575 14.76571 260.08575 14.76571 z M 214.07648 36.77499 C 215.62183000000002 36.77499 217.06153 36.33773 218.29346 35.59176 L 225.58527 35.54928 C 224.50537 33.85922 223.27015 32.30575 221.90699 30.904870000000003 C 222.11982 30.176840000000002 222.23933 29.40902 222.23933 28.612270000000002 C 222.23933 24.104090000000003 218.58473 20.449430000000003 214.07649 20.449430000000003 C 209.56831 20.449430000000003 205.91365000000002 24.104090000000003 205.91365000000002 28.612270000000002 C 205.91365000000002 33.120450000000005 209.5683 36.77499 214.07648 36.77499 z M 198.6629 49.53085 L 192.26263 61.28402 C 194.22381000000001 62.42733 196.33001000000002 63.29427 198.54388 63.83578 L 201.58502000000001 50.50277 C 200.56775 50.29843 199.5874 49.97641 198.6629 49.53085 z M 191.06543 31.21445 L 186.78461 30.16684 C 185.39294999999998 31.4935 184.12873 32.978120000000004 183.00501 34.59628 L 190.5185 34.88632 C 190.57141 33.61618 190.75092 32.38388 191.06543 31.21445 z M 179.33417 41.70114 L 190.91388 39.32651 C 190.64752000000001 38.14499 190.49103 36.91464 190.4881 35.64096 L 184.21631 35.64096 L 182.25305 35.70346 C 181.08496 37.55673 180.10663 39.56918 179.33417 41.70114 z M 192.75232 27.19833 L 191.52228 26.53622 C 190.12530999999998 27.36923 188.81195 28.35067 187.57685 29.43966 L 191.28297 30.51156 C 191.65698 29.33505 192.14496 28.22006 192.75232 27.19833 z M 179.21906 42.99179 C 179.70344 45.05575 180.38843 47.02731 181.24408000000003 48.88412 L 192.43817 43.42391000000001 C 191.87158000000002 42.371660000000006 191.40527 41.24434000000001 191.07831000000002 40.04500000000001 L 179.21906 42.99179 z M 181.79755 50.02133 C 182.78327 51.94394 183.95813 53.7269 185.29578 55.33786 L 194.92871 46.81894 C 194.11914 45.994479999999996 193.38945999999999 45.072849999999995 192.77728 44.050999999999995 L 181.79755 50.02133 z M 194.20831 25.16903 C 193.56494 25.45467 192.93481 25.76717 192.31707 26.10653 L 193.14281 26.59884 C 193.47308 26.09823 193.82678 25.6196 194.20831 25.16903 z M 215.1781 44.02816 L 226.16956 49.97372 C 227.10217999999998 48.14657 227.86840999999998 46.19845 228.43195 44.14914 L 216.65131 40.718720000000005 C 216.27545 41.89389 215.78687 43.00802 215.1781 44.02816 z M 228.73669 42.94076 C 228.77813 42.76303 228.81427000000002 42.58309 228.85272 42.40414 C 228.1748 40.38778 227.30279000000002 38.483 226.27234 36.701629999999994 L 217.42316000000002 36.34701999999999 C 217.36805 37.617279999999994 217.18738000000002 38.850069999999995 216.87055000000004 40.01937999999999 L 228.73669 42.94076 z M 191.1308 60.58334 L 198.09516 49.2236 C 197.13372999999999 48.69882 196.22888999999998 48.06418 195.41169 47.30893 L 186.14265 56.311249999999994 C 187.6405 57.9537 189.31482 59.38998 191.1308 60.58334 z M 209.19366 63.88949 C 211.0559 63.45236 212.84161 62.78036 214.53259 61.912440000000004 L 208.97821 50.29159 C 209.14667 50.13192 209.29529 49.95516 209.43725999999998 49.7712 L 215.72198999999998 61.26009 C 217.60938 60.154869999999995 219.36022999999997 58.794509999999995 220.93768999999998 57.2159 L 212.02838999999997 47.731519999999996 C 211.32617999999997 48.32136 210.57287999999997 48.8343 209.77435999999997 49.26338 C 210.14868999999996 48.61018 210.37945999999997 47.86372 210.37945999999997 47.05684 C 210.37945999999997 44.59041 208.38006999999996 42.59102 205.91363999999996 42.59102 C 203.44726999999995 42.59102 201.44787999999997 44.59041 201.44787999999997 47.05684 C 201.44787999999997 48.575520000000004 202.20959999999997 49.912800000000004 203.36797999999996 50.71956 C 202.96770999999995 50.69966 202.57207999999997 50.66341 202.18163999999996 50.60506 L 199.91460999999995 63.99068 C 202.11254999999994 64.01961 204.31084999999996 64.0162 206.50646999999995 63.97493 C 206.57085999999995 63.97371 206.63531999999995 63.97005 206.69970999999995 63.9687 L 205.27685999999994 51.45845 C 205.48663999999994 51.4886 205.69549999999995 51.52254 205.91363999999993 51.52254 C 205.92382999999992 51.52254 205.93322999999992 51.51961 205.94342999999992 51.51961 L 208.06726999999992 63.92537 C 208.44275 63.91537 208.81818 63.90121 209.19366 63.88949 z M 225.57159 51.08688 L 214.78534 44.6268 C 214.13415999999998 45.610200000000006 213.39141999999998 46.51254 212.55114999999998 47.292080000000006 L 221.83581999999998 56.27304000000001 C 223.25061 54.71566 224.50452 52.97555 225.57159 51.08688 z M 6.87378 11.81845 C 15.93799 9.23447 25.03516 6.49887 34.29334 4.69369 C 43.58667 2.8816800000000002 53.064949999999996 1.9351500000000001 62.53687 2.10433 C 65.13172 2.1505900000000002 67.72559 2.21053 70.31592 2.37984 C 71.68445000000001 2.46932 73.05384000000001 2.55025 74.42188 2.6463200000000002 C 75.79786 2.7430000000000003 77.13782 2.5916300000000003 78.51526 2.7015000000000002 C 78.6875 2.7152900000000004 78.72095 2.4427100000000004 78.55579 2.4023100000000004 C 77.36841 2.1119000000000003 76.24683 1.6138600000000003 75.05347 1.3789900000000004 C 73.93872 1.1595100000000005 72.81275000000001 0.9678600000000004 71.68579 0.8225900000000004 C 69.33313 0.5193700000000003 66.96533 0.30867000000000033 64.59801999999999 0.1609700000000004 C 59.804689999999994 -0.1378599999999996 54.95214999999999 0.010820000000000385 50.16503999999999 0.3493200000000004 C 40.59789999999999 1.0257100000000006 31.02843999999999 2.6990500000000006 21.80602999999999 5.34163 C 16.54955999999999 6.84773 11.53100999999999 8.82271 6.620849999999988 11.218710000000002 C 6.28333 11.38339 6.521 11.91903 6.87378 11.81845 z M 95.39624 24.12411 C 95.39624 24.12411 88.51733 21.300140000000003 86.84619 20.611900000000002 C 85.21118000000001 19.938560000000003 83.57568 19.25033 81.91650000000001 18.639000000000003 C 80.77722000000001 18.219320000000003 79.62182000000001 17.841880000000003 78.45935000000001 17.48739 C 81.79517000000001 22.64254 83.71875000000001 28.93832 83.71875000000001 35.6014 C 83.71875000000001 48.12386 77.02344000000001 58.92183 67.43201000000002 63.76827 C 67.47803000000002 63.765950000000004 67.52417000000003 63.76497 67.57032000000002 63.76265 C 69.85023000000002 63.64998 72.13013000000002 63.515950000000004 74.40894000000003 63.38338 C 76.84424000000003 63.241780000000006 79.26648000000003 63.588460000000005 81.68238000000002 63.48738 C 82.01466000000002 63.47346 82.07886000000002 63.98677 81.76026000000002 64.06282 C 79.39612000000001 64.62727 77.18116000000002 65.52766 74.74464000000002 65.8636 C 72.35731000000001 66.1927 69.97438000000002 66.43696 67.57032000000002 66.60237000000001 C 62.74732000000002 66.93440000000001 57.921390000000024 67.04585 53.088140000000024 66.94148000000001 C 48.96168000000002 66.85237000000001 44.78589000000002 66.75813000000001 40.674570000000024 66.37800000000001 C 36.851080000000024 66.02436000000002 33.203380000000024 65.37324000000001 30.015630000000023 63.13007000000002 C 29.569830000000024 62.816350000000014 29.833260000000024 62.087220000000016 30.39490000000002 62.230530000000016 C 33.93750000000002 63.13446000000002 37.83936000000002 63.33148000000001 41.480110000000025 63.50409000000002 C 42.504400000000025 63.55267000000002 43.52955000000002 63.59772000000002 44.55433000000002 63.645690000000016 C 35.09205000000002 58.74090000000002 28.50929000000002 48.018490000000014 28.50929000000002 35.60138000000002 C 28.50929000000002 28.61591000000002 30.64015000000002 21.94757000000002 34.371720000000025 16.59503000000002 C 28.997090000000025 17.48749000000002 23.679700000000025 18.673890000000018 18.474380000000025 20.10187000000002 C 17.589370000000024 20.34479000000002 16.709000000000024 20.603700000000018 15.829600000000024 20.86603000000002 C 15.985480000000024 24.39997000000002 15.928480000000024 30.686830000000022 17.142220000000023 35.25507000000002 C 18.40662000000002 40.01423000000002 20.200940000000024 44.59650000000002 22.524420000000024 48.911560000000016 C 23.254770000000025 50.26788000000001 24.045660000000023 51.59540000000001 24.819100000000024 52.92731000000001 C 25.202640000000024 53.588200000000015 25.590100000000024 54.24726000000001 25.910160000000023 54.942450000000015 C 26.261230000000022 55.70551000000002 26.47559000000002 56.45527000000001 26.959480000000024 57.15375000000002 C 27.468020000000024 57.887760000000014 20.116580000000024 52.40192000000002 14.748300000000024 41.731020000000015 C 12.736700000000024 37.73273000000002 10.848280000000024 27.321350000000017 11.475350000000024 22.251770000000015 C 9.543340000000024 22.906070000000014 7.6251300000000235 23.601260000000014 5.727550000000024 24.349550000000015 C 5.022720000000024 24.627500000000015 3.6003500000000237 24.911440000000013 3.6003500000000237 24.911440000000013 L 1.6604 20.80356 C 1.6604 20.80356 4.88574 19.644750000000002 4.92065 19.60141 C 4.396240000000001 19.54306 1.2075200000000001 18.1705 1.2075200000000001 18.1705 C 1.2075200000000001 18.1705 4.4292 17.31979 4.71692 16.95444 C 4.55615 16.91452 0 14.76571 0 14.76571 C 0 14.76571 4.32153 14.11581 6.09534 13.88387 C 8.07715 13.62459 10.06128 13.36483 12.03736 13.06453 C 13.62989 12.822339999999999 15.21705 12.54524 16.800179999999997 12.24788 C 33.981089999999995 7.9700500000000005 52.07044 4.71248 69.82179 6.7126 C 71.61867 6.91511 73.40968 7.16939 75.19264 7.47176 C 78.42457 8.02108 81.69972 7.89217 84.84058999999999 6.93074 C 86.09938 6.54549 89.99610999999999 5.09285 89.96364 5.1927 C 89.9585 5.20859 89.95337 5.2247 89.948 5.24081 C 89.99584999999999 5.5682 86.97631999999999 9.07284 85.18408 9.975919999999999 C 91.26415999999999 12.057949999999998 93.81128 16.82236 93.81128 16.82236 C 93.81128 16.82236 90.18285999999999 16.08725 89.48071 16.108 C 89.23169 16.11532 88.97778 16.08774 88.72363 16.04965 C 94.09424 18.85995 95.39624 24.12411 95.39624 24.12411 z M 64.41162 36.77499 C 66.39856 36.77499 68.2185 36.063810000000004 69.63403 34.883630000000004 L 77.08055999999999 34.59628000000001 C 75.95678 32.978120000000004 74.69261999999999 31.493500000000008 73.30102 30.166720000000005 L 72.37352999999999 30.393650000000004 C 72.50146 29.819680000000005 72.57445999999999 29.224950000000003 72.57445999999999 28.612280000000005 C 72.57445999999999 24.104100000000006 68.91966999999998 20.449440000000006 64.41161999999998 20.449440000000006 C 59.90331999999999 20.449440000000006 56.24877999999998 24.104100000000006 56.24877999999998 28.612280000000005 C 56.24877999999998 33.12046000000001 59.90332 36.77499 64.41162 36.77499 z M 39.14734 57.2153 C 40.724849999999996 58.79404 42.47583 60.15463 44.36353 61.25998 L 50.78565 49.52011 C 49.80835999999999 49.04697 48.898199999999996 48.43808 48.05665 47.73105 L 39.14734 57.2153 z M 42.63245 35.52462 C 42.63819 34.256679999999996 42.79468 33.0317 43.061409999999995 31.855549999999997 L 38.23083999999999 30.848839999999996 C 36.840219999999995 32.27034999999999 35.58239999999999 33.85104 34.484869999999994 35.57209999999999 L 42.63245 35.52462 z M 44.5929 27.75705 L 42.996340000000004 26.97311 C 41.587160000000004 27.8735 40.25952 28.911459999999998 39.026250000000005 30.075889999999998 L 43.228280000000005 31.126309999999997 C 43.55688 29.93014 44.02563 28.80649 44.5929 27.75705 z M 31.34888 42.94113 L 43.215090000000004 40.01938 C 42.8982 38.850069999999995 42.717530000000004 37.617399999999996 42.66248 36.34702 L 33.81324 36.70163 C 32.78272 38.483000000000004 31.91077 40.38815 31.23292 42.40451 C 31.27124 42.58358 31.30737 42.76352 31.34888 42.94113 z M 31.65356 44.14914 C 32.21704 46.198460000000004 32.98327 48.14658 33.91589 49.97372 L 44.907469999999996 44.02816 C 44.298829999999995 43.0079 43.81005999999999 41.89376 43.434329999999996 40.71859 L 31.65356 44.14914 z M 46.35095 25.16891 C 45.46631 25.56185 44.59814 25.9902 43.76294 26.483240000000002 L 44.9364 27.123250000000002 C 45.35669 26.42514 45.83569 25.77743 46.35095 25.16891 z M 69.17175 39.32638 L 80.75146000000001 41.70101 C 79.97521 39.558679999999995 78.99011000000002 37.537679999999995 77.81445000000001 35.67684 L 76.81933000000001 35.63997 L 69.59753 35.64082 C 69.5946 36.91464 69.43811 38.14486 69.17175 39.32638 z M 65.1571 46.81894 L 74.78990999999999 55.33762 C 76.12768 53.72666 77.30224 51.9437 78.28808 50.02085 L 67.30859 44.05064 C 66.69629 45.0726 65.9668 45.99423 65.1571 46.81894 z M 78.84155 48.88363 C 79.69714 47.02706 80.38208 45.05551 80.86645 42.99154 L 69.00731999999999 40.04501 C 68.68042 41.24411 68.21410999999999 42.37143 67.64769999999999 43.42355 L 78.84155 48.88363 z M 38.24927 56.27255 L 47.53394 47.29135 C 46.69385 46.51205 45.95142 45.60995 45.3003 44.6268 L 34.51392 51.08688 C 35.58081 52.97531 36.83472 54.7153 38.24927 56.27255 z M 50.89209 63.88949 C 51.267700000000005 63.90121 51.643190000000004 63.91537 52.018800000000006 63.925380000000004 L 54.228390000000005 51.01852 C 54.421870000000006 51.11752 54.62182000000001 51.200770000000006 54.83044 51.271080000000005 L 53.386230000000005 63.968830000000004 C 53.450680000000006 63.97005000000001 53.51489000000001 63.973710000000004 53.57922000000001 63.97493000000001 C 55.77478000000001 64.01619000000001 57.97290000000001 64.01961000000001 60.17089000000001 63.990680000000005 L 57.998650000000005 51.16536000000001 C 58.202870000000004 51.07820000000001 58.39233000000001 50.965410000000006 58.57958000000001 50.84993000000001 L 61.5415 63.8359 C 63.75537 63.2944 65.86157 62.42757 67.82275 61.28426 L 61.42236 49.531090000000006 C 60.738519999999994 49.86068000000001 60.02124 50.115320000000004 59.284659999999995 50.315270000000005 C 60.15942 49.49996000000001 60.714589999999994 48.34689 60.714589999999994 47.056850000000004 C 60.714589999999994 44.59042 58.71507999999999 42.59103 56.24876999999999 42.59103 C 53.78233999999999 42.59103 51.78294999999999 44.59042 51.78294999999999 47.056850000000004 C 51.78294999999999 48.414640000000006 52.40171999999999 49.61581 53.357899999999994 50.434900000000006 C 52.66868999999999 50.274010000000004 52.004749999999994 50.04012000000001 51.35838999999999 49.765950000000004 L 45.552969999999995 61.91243 C 47.24402 62.78036 49.02979 63.45224 50.89209 63.88949 z M 73.94312 56.31112 L 64.67407999999999 47.30892 C 63.85681999999999 48.06417 62.95166999999999 48.69906 61.99011999999999 49.22371 L 68.95447999999999 60.583569999999995 C 70.77051 59.39022 72.44507 57.9537 73.94312 56.31112 z" stroke-linecap="round" />
</g>
</g>
</g>
<g transform="matrix(1.9211538461538462 0 0 1.9211538461538462 659.9632580699771 405.0034957853972)" id="text-logo"  >
<g style=""  paint-order="stroke"   >
		<g transform="matrix(1 0 0 1 0 0)" id="text-logo-path-0"  >
<path style="stroke: rgb(255,255,255); stroke-width: 0; stroke-dasharray: none; stroke-linecap: butt; stroke-dashoffset: 0; stroke-linejoin: miter; stroke-miterlimit: 4; fill: rgb(188,4,46); fill-rule: nonzero; opacity: 1;"  paint-order="stroke"  transform=" translate(-286.46, 21.759999999999998)" d="M -4.76 -0.52 L -4.76 -0.52 Q -4.76 -1.05 -4.6 -1.58 Q -4.44 -2.12 -4.15 -2.57 Q -3.86 -3.02 -3.44 -3.3 Q -3.02 -3.57 -2.5 -3.57 L -2.5 -3.57 Q -2.03 -3.57 -1.68 -2.93 Q -1.34 -2.3 -0.8 -1.53 Q -0.26 -0.76 0.58 -0.12 Q 1.42 0.52 2.91 0.52 L 2.91 0.52 Q 4.42 0.52 5.78 -0.2 Q 7.15 -0.93 8.41 -2.48 Q 9.67 -4.04 10.84 -6.45 Q 12 -8.86 13.1 -12.26 L 13.1 -12.26 L 6.25 -12.26 L 6.25 -14.82 L 13.86 -14.82 Q 14.82 -18.07 15.73 -21.38 Q 16.65 -24.69 17.46 -27.74 Q 18.27 -30.79 18.91 -33.45 Q 19.55 -36.11 19.99 -38.09 L 19.99 -38.09 Q 19.41 -39.71 18.4 -40.26 Q 17.4 -40.82 15.72 -40.82 L 15.72 -40.82 Q 14.15 -40.82 12.48 -40.34 Q 10.81 -39.86 9.44 -38.97 Q 8.08 -38.09 7.19 -36.79 Q 6.3 -35.5 6.3 -33.9 L 6.3 -33.9 Q 6.3 -32.97 6.55 -32.42 Q 6.8 -31.87 7.13 -31.59 Q 7.47 -31.32 7.79 -31.24 Q 8.11 -31.17 8.28 -31.17 L 8.28 -31.17 Q 8.98 -31.17 9.46 -31.42 Q 9.94 -31.67 10.3 -31.94 Q 10.66 -32.22 11.01 -32.46 Q 11.36 -32.71 11.79 -32.71 L 11.79 -32.71 Q 12.11 -32.71 12.51 -32.55 Q 12.9 -32.39 13.23 -32.04 Q 13.57 -31.69 13.8 -31.13 Q 14.03 -30.56 14.03 -29.75 L 14.03 -29.75 Q 14.03 -28.59 13.58 -27.74 Q 13.13 -26.9 12.42 -26.33 Q 11.71 -25.77 10.79 -25.49 Q 9.88 -25.22 8.98 -25.22 L 8.98 -25.22 Q 7.58 -25.22 6.46 -25.72 Q 5.35 -26.23 4.56 -27.1 Q 3.78 -27.98 3.37 -29.14 Q 2.96 -30.3 2.96 -31.58 L 2.96 -31.58 Q 2.96 -33.5 3.6 -35.11 Q 4.24 -36.72 5.37 -38.04 Q 6.51 -39.36 8.05 -40.37 Q 9.59 -41.37 11.37 -42.05 Q 13.16 -42.73 15.11 -43.08 Q 17.05 -43.43 19.03 -43.43 L 19.03 -43.43 Q 21.82 -43.43 23.75 -42.98 Q 25.68 -42.53 26.99 -41.64 Q 28.3 -40.76 29.09 -39.41 Q 29.89 -38.06 30.42 -36.28 L 30.42 -36.28 L 36.66 -14.82 L 42.97 -14.82 L 42.97 -12.26 L 37.36 -12.26 L 39.63 -4.65 Q 39.74 -4.21 39.86 -3.83 Q 39.97 -3.46 40.13 -3.18 Q 40.29 -2.91 40.54 -2.73 Q 40.79 -2.56 41.17 -2.56 L 41.17 -2.56 Q 41.98 -2.56 42.68 -2.83 Q 43.37 -3.11 43.9 -3.4 L 43.9 -3.4 L 44.39 -2.32 Q 43.87 -1.95 43.07 -1.47 Q 42.27 -0.99 41.24 -0.55 Q 40.21 -0.12 38.96 0.17 Q 37.71 0.46 36.28 0.46 L 36.28 0.46 Q 34.31 0.46 33.1 -0.03 Q 31.9 -0.52 31.22 -1.25 Q 30.53 -1.98 30.23 -2.79 Q 29.92 -3.6 29.75 -4.21 L 29.75 -4.21 L 27.42 -12.26 L 16.47 -12.26 Q 15.25 -8.42 13.84 -5.61 Q 12.43 -2.79 10.72 -0.93 Q 9.01 0.93 6.96 1.83 Q 4.91 2.73 2.38 2.73 L 2.38 2.73 Q 0.99 2.73 -0.31 2.48 Q -1.6 2.24 -2.59 1.8 Q -3.57 1.37 -4.17 0.77 Q -4.76 0.17 -4.76 -0.52 Z M 17.26 -14.82 L 17.26 -14.82 L 26.73 -14.82 L 21.79 -31.9 Q 20.6 -27.05 19.48 -22.78 Q 18.36 -18.51 17.26 -14.82 Z M 45.06 -26.47 L 44.45 -27.19 Q 45.12 -27.74 45.94 -28.28 Q 46.77 -28.82 47.73 -29.23 Q 48.69 -29.63 49.79 -29.89 Q 50.9 -30.16 52.12 -30.16 L 52.12 -30.16 Q 54.01 -30.16 55.05 -29.53 Q 56.1 -28.91 56.59 -28.03 Q 57.09 -27.16 57.19 -26.22 Q 57.29 -25.27 57.29 -24.64 L 57.29 -24.64 Q 58.36 -26.18 59.73 -27.4 L 59.73 -27.4 Q 60.28 -27.92 60.96 -28.41 Q 61.65 -28.91 62.42 -29.3 Q 63.19 -29.69 64.04 -29.92 Q 64.9 -30.16 65.8 -30.16 L 65.8 -30.16 Q 67.78 -30.16 69.3 -29.4 Q 70.83 -28.64 71.87 -26.87 Q 72.92 -25.1 73.47 -22.18 Q 74.02 -19.26 74.02 -14.93 L 74.02 -14.93 Q 74.02 -10.72 73.27 -7.61 Q 72.51 -4.5 71.29 -2.32 Q 70.07 -0.15 68.53 1.23 Q 66.99 2.61 65.42 3.4 Q 63.85 4.18 62.42 4.49 Q 60.98 4.79 59.93 4.82 L 59.93 4.82 L 59.61 3.63 Q 60.48 3.43 61.23 2.99 Q 61.97 2.56 62.58 1.71 Q 63.19 0.87 63.65 -0.42 Q 64.12 -1.71 64.45 -3.66 Q 64.78 -5.61 64.94 -8.27 Q 65.1 -10.92 65.1 -14.47 L 65.1 -14.47 Q 65.1 -18.13 64.77 -20.32 Q 64.44 -22.51 63.88 -23.66 Q 63.33 -24.81 62.66 -25.17 Q 61.99 -25.54 61.3 -25.54 L 61.3 -25.54 Q 60.46 -25.54 59.8 -25.09 Q 59.15 -24.64 58.67 -24.05 Q 58.19 -23.47 57.86 -22.89 Q 57.52 -22.31 57.29 -22.02 L 57.29 -22.02 L 57.29 -2.61 Q 57.29 -2.24 57.17 -1.7 Q 57.06 -1.16 56.61 -0.68 Q 56.16 -0.2 55.27 0.13 Q 54.38 0.46 52.84 0.46 L 52.84 0.46 Q 51.3 0.46 50.42 0.1 Q 49.53 -0.26 49.07 -0.76 Q 48.6 -1.25 48.49 -1.77 Q 48.37 -2.3 48.37 -2.61 L 48.37 -2.61 L 48.37 -25.04 Q 48.37 -25.88 47.98 -26.51 Q 47.59 -27.13 46.66 -27.13 L 46.66 -27.13 Q 46.16 -27.13 45.81 -26.96 Q 45.46 -26.79 45.06 -26.47 L 45.06 -26.47 Z M 77.07 -26.47 L 76.46 -27.19 Q 77.13 -27.74 77.96 -28.28 Q 78.79 -28.82 79.75 -29.23 Q 80.7 -29.63 81.81 -29.89 Q 82.91 -30.16 84.13 -30.16 L 84.13 -30.16 Q 86.02 -30.16 87.07 -29.65 Q 88.11 -29.14 88.61 -28.4 Q 89.1 -27.66 89.2 -26.81 Q 89.3 -25.97 89.3 -25.33 L 89.3 -25.33 L 89.3 -2.61 Q 89.3 -2.24 89.17 -1.7 Q 89.04 -1.16 88.56 -0.68 Q 88.08 -0.2 87.18 0.13 Q 86.28 0.46 84.74 0.46 L 84.74 0.46 Q 83.2 0.46 82.33 0.1 Q 81.46 -0.26 81.02 -0.76 Q 80.59 -1.25 80.49 -1.77 Q 80.38 -2.3 80.38 -2.61 L 80.38 -2.61 L 80.38 -25.04 Q 80.38 -25.88 79.99 -26.51 Q 79.6 -27.13 78.67 -27.13 L 78.67 -27.13 Q 78.18 -27.13 77.83 -26.96 Q 77.48 -26.79 77.07 -26.47 L 77.07 -26.47 Z M 79.48 -36.78 L 79.48 -36.78 Q 79.48 -37.59 79.85 -38.33 Q 80.21 -39.07 80.86 -39.63 Q 81.52 -40.18 82.37 -40.5 Q 83.23 -40.82 84.25 -40.82 L 84.25 -40.82 Q 85.24 -40.82 86.09 -40.5 Q 86.95 -40.18 87.59 -39.63 Q 88.23 -39.07 88.59 -38.33 Q 88.95 -37.59 88.95 -36.78 L 88.95 -36.78 Q 88.95 -35.94 88.59 -35.21 Q 88.23 -34.48 87.59 -33.95 Q 86.95 -33.41 86.09 -33.09 Q 85.24 -32.77 84.25 -32.77 L 84.25 -32.77 Q 83.23 -32.77 82.37 -33.09 Q 81.52 -33.41 80.86 -33.95 Q 80.21 -34.48 79.85 -35.21 Q 79.48 -35.94 79.48 -36.78 Z M 93.66 -26.47 L 93.05 -27.19 Q 93.72 -27.74 94.55 -28.28 Q 95.37 -28.82 96.33 -29.23 Q 97.29 -29.63 98.4 -29.89 Q 99.5 -30.16 100.72 -30.16 L 100.72 -30.16 Q 102.61 -30.16 103.65 -29.53 Q 104.7 -28.91 105.19 -28.03 Q 105.69 -27.16 105.79 -26.22 Q 105.89 -25.27 105.89 -24.64 L 105.89 -24.64 Q 107.26 -26.18 108.83 -27.4 L 108.83 -27.4 Q 109.46 -27.92 110.23 -28.41 Q 111 -28.91 111.82 -29.3 Q 112.63 -29.69 113.5 -29.92 Q 114.37 -30.16 115.25 -30.16 L 115.25 -30.16 Q 116.93 -30.16 118.12 -29.54 Q 119.31 -28.93 120.04 -28.08 Q 120.77 -27.22 121.1 -26.28 Q 121.43 -25.33 121.43 -24.64 L 121.43 -24.64 Q 122.83 -26.18 124.37 -27.4 L 124.37 -27.4 Q 125.01 -27.92 125.76 -28.41 Q 126.52 -28.91 127.35 -29.3 Q 128.17 -29.69 129.03 -29.92 Q 129.89 -30.16 130.76 -30.16 L 130.76 -30.16 Q 132.44 -30.16 133.63 -29.53 Q 134.83 -28.91 135.55 -27.89 Q 136.28 -26.87 136.61 -25.59 Q 136.95 -24.32 136.95 -23.04 L 136.95 -23.04 L 136.95 -5.05 Q 136.95 -4.79 136.98 -4.49 Q 137 -4.18 137.12 -3.91 Q 137.24 -3.63 137.48 -3.46 Q 137.73 -3.28 138.14 -3.28 L 138.14 -3.28 Q 138.69 -3.28 139.13 -3.67 Q 139.56 -4.07 139.94 -4.47 L 139.94 -4.47 L 140.64 -3.86 Q 140.23 -3.25 139.56 -2.51 Q 138.89 -1.77 137.98 -1.1 Q 137.06 -0.44 135.86 0.01 Q 134.65 0.46 133.14 0.46 L 133.14 0.46 Q 131.86 0.46 130.92 0.13 Q 129.97 -0.2 129.32 -0.77 Q 128.67 -1.34 128.35 -2.11 Q 128.03 -2.88 128.03 -3.75 L 128.03 -3.75 L 128.03 -23.15 Q 128.03 -23.56 127.91 -23.98 Q 127.8 -24.4 127.58 -24.75 Q 127.36 -25.1 127.01 -25.32 Q 126.66 -25.54 126.2 -25.54 L 126.2 -25.54 Q 125.41 -25.54 124.64 -25.09 Q 123.87 -24.64 123.22 -24.05 Q 122.57 -23.47 122.1 -22.89 Q 121.64 -22.31 121.43 -22.02 L 121.43 -22.02 L 121.43 -2.56 Q 121.43 -2.18 121.32 -1.66 Q 121.2 -1.13 120.75 -0.67 Q 120.3 -0.2 119.4 0.13 Q 118.5 0.46 116.96 0.46 L 116.96 0.46 Q 115.42 0.46 114.53 0.1 Q 113.65 -0.26 113.2 -0.76 Q 112.75 -1.25 112.63 -1.77 Q 112.51 -2.3 112.51 -2.61 L 112.51 -2.61 L 112.51 -23.15 Q 112.51 -23.56 112.4 -23.98 Q 112.28 -24.4 112.05 -24.75 Q 111.82 -25.1 111.47 -25.32 Q 111.12 -25.54 110.66 -25.54 L 110.66 -25.54 Q 109.87 -25.54 109.12 -25.09 Q 108.36 -24.64 107.71 -24.05 Q 107.05 -23.47 106.57 -22.89 Q 106.09 -22.31 105.89 -22.02 L 105.89 -22.02 L 105.89 -2.56 Q 105.89 -2.18 105.77 -1.66 Q 105.66 -1.13 105.21 -0.67 Q 104.76 -0.2 103.87 0.13 Q 102.99 0.46 101.45 0.46 L 101.45 0.46 Q 99.91 0.46 99.02 0.1 Q 98.13 -0.26 97.67 -0.76 Q 97.2 -1.25 97.09 -1.77 Q 96.97 -2.3 96.97 -2.61 L 96.97 -2.61 L 96.97 -25.04 Q 96.97 -25.88 96.58 -26.51 Q 96.19 -27.13 95.26 -27.13 L 95.26 -27.13 Q 94.76 -27.13 94.42 -26.96 Q 94.07 -26.79 93.66 -26.47 L 93.66 -26.47 Z M 142.73 -14.21 L 142.73 -14.21 Q 142.73 -16.85 143.4 -19.06 Q 144.06 -21.27 145.21 -23.04 Q 146.36 -24.81 147.88 -26.15 Q 149.41 -27.48 151.09 -28.37 Q 152.78 -29.25 154.54 -29.7 Q 156.29 -30.16 157.92 -30.16 L 157.92 -30.16 Q 160.07 -30.16 161.67 -29.69 Q 163.27 -29.23 164.33 -28.44 Q 165.39 -27.66 165.91 -26.63 Q 166.43 -25.59 166.43 -24.46 L 166.43 -24.46 Q 166.43 -23.1 165.65 -22.01 Q 164.86 -20.92 163.56 -20.1 L 163.56 -20.1 L 152.08 -13.33 Q 152.08 -12.4 152.36 -11.32 Q 152.63 -10.23 153.16 -9.12 Q 153.68 -8.02 154.45 -7.02 Q 155.22 -6.01 156.22 -5.23 Q 157.22 -4.44 158.44 -3.98 Q 159.66 -3.52 161.12 -3.52 L 161.12 -3.52 Q 162.13 -3.52 163.01 -3.75 Q 163.88 -3.98 164.63 -4.39 Q 165.39 -4.79 166.08 -5.33 Q 166.78 -5.87 167.48 -6.48 L 167.48 -6.48 L 168.21 -5.78 Q 167.54 -4.88 166.49 -3.81 Q 165.45 -2.73 163.96 -1.79 Q 162.48 -0.84 160.51 -0.22 Q 158.53 0.41 156 0.41 L 156 0.41 Q 153.48 0.41 151.08 -0.51 Q 148.68 -1.42 146.82 -3.25 Q 144.96 -5.08 143.85 -7.81 Q 142.73 -10.55 142.73 -14.21 Z M 151.79 -15.72 L 151.79 -15.72 L 157.92 -19.23 Q 158.3 -19.46 158.55 -19.68 Q 158.79 -19.9 158.94 -20.21 Q 159.08 -20.51 159.16 -20.96 Q 159.23 -21.41 159.23 -22.08 L 159.23 -22.08 Q 159.23 -22.81 159.07 -23.69 Q 158.91 -24.58 158.53 -25.36 Q 158.15 -26.15 157.57 -26.67 Q 156.99 -27.19 156.18 -27.19 L 156.18 -27.19 Q 155.13 -27.19 154.39 -26.57 Q 153.65 -25.94 153.17 -24.95 Q 152.69 -23.97 152.42 -22.7 Q 152.14 -21.44 152 -20.16 Q 151.85 -18.88 151.82 -17.71 Q 151.79 -16.53 151.79 -15.72 Z M 181.89 -30.82 L 181.89 -30.82 Q 181.89 -34.22 183.76 -36.6 Q 185.64 -38.99 188.89 -40.51 Q 192.14 -42.04 196.47 -42.73 Q 200.8 -43.43 205.74 -43.43 L 205.74 -43.43 Q 208.09 -43.43 210.33 -43.39 Q 212.57 -43.34 214.41 -43.26 Q 216.26 -43.17 217.59 -43.05 Q 218.93 -42.94 219.54 -42.79 L 219.54 -42.79 Q 220.12 -42.65 220.47 -42.47 Q 220.82 -42.3 220.99 -42.07 Q 221.17 -41.83 221.22 -41.53 Q 221.28 -41.22 221.28 -40.82 L 221.28 -40.82 Q 221.28 -40.47 221.19 -40.05 Q 221.11 -39.63 220.93 -39.26 Q 220.76 -38.9 220.5 -38.64 Q 220.24 -38.38 219.86 -38.38 L 219.86 -38.38 Q 219.63 -38.38 219.35 -38.58 Q 219.07 -38.78 218.57 -39.1 Q 218.06 -39.42 217.2 -39.77 Q 216.34 -40.12 214.91 -40.44 Q 213.47 -40.76 211.33 -40.96 Q 209.2 -41.17 206.18 -41.17 L 206.18 -41.17 L 206.18 -22.54 L 218.23 -22.54 L 218.23 -19.99 L 206.18 -19.99 L 206.18 -8.63 Q 206.18 -7.26 206.58 -6.29 Q 206.99 -5.32 207.74 -4.68 Q 208.5 -4.04 209.56 -3.75 Q 210.62 -3.46 211.93 -3.46 L 211.93 -3.46 Q 213.41 -3.46 214.89 -3.76 Q 216.37 -4.07 217.69 -4.53 Q 219.02 -5 220.11 -5.58 Q 221.19 -6.16 221.86 -6.71 L 221.86 -6.71 L 223 -5.46 Q 222.27 -4.88 221.05 -3.88 Q 219.83 -2.88 218.07 -1.92 Q 216.31 -0.96 213.98 -0.25 Q 211.64 0.46 208.67 0.46 L 208.67 0.46 Q 207.69 0.46 206.42 0.36 Q 205.16 0.26 203.82 -0.04 Q 202.49 -0.35 201.19 -0.94 Q 199.9 -1.54 198.9 -2.53 Q 197.9 -3.52 197.27 -4.95 Q 196.65 -6.39 196.65 -8.4 L 196.65 -8.4 L 196.65 -19.99 L 192.11 -19.99 L 192.11 -22.54 L 196.65 -22.54 L 196.65 -40.82 Q 195.72 -40.73 194.51 -40.48 Q 193.31 -40.24 192.04 -39.79 Q 190.78 -39.34 189.56 -38.73 Q 188.34 -38.12 187.38 -37.3 Q 186.42 -36.49 185.83 -35.49 Q 185.23 -34.48 185.23 -33.32 L 185.23 -33.32 Q 185.23 -32.39 185.48 -31.84 Q 185.72 -31.29 186.04 -31.01 Q 186.36 -30.74 186.7 -30.66 Q 187.03 -30.59 187.18 -30.59 L 187.18 -30.59 Q 187.9 -30.59 188.37 -30.84 Q 188.83 -31.08 189.21 -31.36 Q 189.59 -31.64 189.92 -31.88 Q 190.26 -32.13 190.69 -32.13 L 190.69 -32.13 Q 191.04 -32.13 191.43 -31.97 Q 191.82 -31.81 192.16 -31.46 Q 192.49 -31.11 192.72 -30.55 Q 192.96 -29.98 192.96 -29.17 L 192.96 -29.17 Q 192.96 -28.01 192.51 -27.15 Q 192.06 -26.29 191.34 -25.74 Q 190.63 -25.19 189.72 -24.91 Q 188.8 -24.64 187.9 -24.64 L 187.9 -24.64 Q 186.51 -24.64 185.39 -25.11 Q 184.27 -25.59 183.49 -26.44 Q 182.7 -27.28 182.3 -28.4 Q 181.89 -29.52 181.89 -30.82 Z M 223.66 -26.47 L 223.05 -27.19 Q 223.72 -27.74 224.55 -28.28 Q 225.38 -28.82 226.34 -29.23 Q 227.3 -29.63 228.4 -29.89 Q 229.5 -30.16 230.72 -30.16 L 230.72 -30.16 Q 232.61 -30.16 233.66 -29.53 Q 234.7 -28.91 235.2 -28.03 Q 235.69 -27.16 235.79 -26.22 Q 235.89 -25.27 235.89 -24.64 L 235.89 -24.64 Q 236.97 -26.18 238.34 -27.4 L 238.34 -27.4 Q 238.89 -27.92 239.57 -28.41 Q 240.25 -28.91 241.02 -29.3 Q 241.79 -29.69 242.65 -29.92 Q 243.51 -30.16 244.41 -30.16 L 244.41 -30.16 Q 246.38 -30.16 247.91 -29.4 Q 249.43 -28.64 250.48 -26.87 Q 251.52 -25.1 252.08 -22.18 Q 252.63 -19.26 252.63 -14.93 L 252.63 -14.93 Q 252.63 -10.72 251.87 -7.61 Q 251.12 -4.5 249.9 -2.32 Q 248.68 -0.15 247.14 1.23 Q 245.6 2.61 244.03 3.4 Q 242.46 4.18 241.02 4.49 Q 239.58 4.79 238.54 4.82 L 238.54 4.82 L 238.22 3.63 Q 239.09 3.43 239.83 2.99 Q 240.57 2.56 241.18 1.71 Q 241.79 0.87 242.26 -0.42 Q 242.72 -1.71 243.06 -3.66 Q 243.39 -5.61 243.55 -8.27 Q 243.71 -10.92 243.71 -14.47 L 243.71 -14.47 Q 243.71 -18.13 243.38 -20.32 Q 243.04 -22.51 242.49 -23.66 Q 241.94 -24.81 241.27 -25.17 Q 240.6 -25.54 239.9 -25.54 L 239.9 -25.54 Q 239.06 -25.54 238.41 -25.09 Q 237.75 -24.64 237.27 -24.05 Q 236.8 -23.47 236.46 -22.89 Q 236.13 -22.31 235.89 -22.02 L 235.89 -22.02 L 235.89 -2.61 Q 235.89 -2.24 235.78 -1.7 Q 235.66 -1.16 235.21 -0.68 Q 234.76 -0.2 233.88 0.13 Q 232.99 0.46 231.45 0.46 L 231.45 0.46 Q 229.91 0.46 229.02 0.1 Q 228.14 -0.26 227.67 -0.76 Q 227.21 -1.25 227.09 -1.77 Q 226.98 -2.3 226.98 -2.61 L 226.98 -2.61 L 226.98 -25.04 Q 226.98 -25.88 226.58 -26.51 Q 226.19 -27.13 225.26 -27.13 L 225.26 -27.13 Q 224.77 -27.13 224.42 -26.96 Q 224.07 -26.79 223.66 -26.47 L 223.66 -26.47 Z M 259.05 -27.66 L 255.79 -27.66 L 255.79 -29.75 Q 256.61 -29.75 258.06 -30.17 Q 259.51 -30.59 261.04 -31.58 Q 262.56 -32.57 263.87 -34.22 Q 265.18 -35.88 265.73 -38.32 L 265.73 -38.32 L 268.05 -38.32 L 268.05 -29.75 L 272.79 -29.75 Q 275.11 -29.75 275.11 -30.53 L 275.11 -30.53 Q 275.11 -30.82 274.82 -30.92 Q 274.53 -31.03 274.17 -31.19 Q 273.81 -31.35 273.52 -31.64 Q 273.23 -31.93 273.23 -32.6 L 273.23 -32.6 Q 273.23 -33.41 273.73 -33.87 Q 274.24 -34.34 275.06 -34.34 L 275.06 -34.34 Q 275.58 -34.34 275.97 -34.12 Q 276.36 -33.9 276.62 -33.54 Q 276.89 -33.18 277.02 -32.71 Q 277.15 -32.25 277.15 -31.78 L 277.15 -31.78 Q 277.15 -29.89 276.06 -28.78 Q 274.97 -27.66 272.56 -27.66 L 272.56 -27.66 L 268.05 -27.66 L 268.05 -6.19 Q 268.05 -4.65 268.64 -4.05 Q 269.22 -3.46 270.23 -3.46 L 270.23 -3.46 Q 271.02 -3.46 271.63 -3.89 Q 272.24 -4.33 272.67 -4.88 L 272.67 -4.88 Q 273.2 -5.49 273.57 -6.3 L 273.57 -6.3 L 274.47 -5.9 Q 274.04 -4.97 273.44 -3.86 Q 272.85 -2.76 271.86 -1.82 Q 270.87 -0.87 269.38 -0.23 Q 267.88 0.41 265.61 0.41 L 265.61 0.41 Q 264.34 0.41 263.16 0.03 Q 261.98 -0.35 261.07 -1.16 Q 260.15 -1.98 259.6 -3.2 Q 259.05 -4.42 259.05 -6.13 L 259.05 -6.13 L 259.05 -27.66 Z M 275.4 -41.54 L 274.82 -42.24 Q 275.49 -42.79 276.3 -43.33 Q 277.12 -43.87 278.09 -44.27 Q 279.06 -44.68 280.17 -44.94 Q 281.27 -45.2 282.49 -45.2 L 282.49 -45.2 Q 284.38 -45.2 285.43 -44.7 Q 286.47 -44.19 286.97 -43.45 Q 287.46 -42.71 287.56 -41.88 Q 287.66 -41.05 287.66 -40.41 L 287.66 -40.41 L 287.66 -24.64 Q 288.74 -26.18 290.1 -27.4 L 290.1 -27.4 Q 290.66 -27.92 291.34 -28.41 Q 292.02 -28.91 292.79 -29.3 Q 293.56 -29.69 294.42 -29.92 Q 295.28 -30.16 296.18 -30.16 L 296.18 -30.16 Q 298.12 -30.16 299.66 -29.4 Q 301.2 -28.64 302.25 -26.87 Q 303.29 -25.1 303.85 -22.18 Q 304.4 -19.26 304.4 -14.93 L 304.4 -14.93 Q 304.4 -10.72 303.64 -7.61 Q 302.89 -4.5 301.67 -2.32 Q 300.45 -0.15 298.91 1.23 Q 297.37 2.61 295.8 3.4 Q 294.23 4.18 292.78 4.49 Q 291.32 4.79 290.28 4.82 L 290.28 4.82 L 289.99 3.63 Q 291.3 3.31 292.31 2.44 Q 293.33 1.57 294.03 -0.42 Q 294.72 -2.41 295.09 -5.78 Q 295.45 -9.15 295.45 -14.47 L 295.45 -14.47 Q 295.45 -18.13 295.12 -20.32 Q 294.78 -22.51 294.24 -23.66 Q 293.71 -24.81 293.02 -25.17 Q 292.34 -25.54 291.64 -25.54 L 291.64 -25.54 Q 290.8 -25.54 290.16 -25.09 Q 289.52 -24.64 289.04 -24.05 Q 288.56 -23.47 288.23 -22.89 Q 287.9 -22.31 287.66 -22.02 L 287.66 -22.02 L 287.66 -2.61 Q 287.66 -2.24 287.55 -1.7 Q 287.43 -1.16 286.98 -0.68 Q 286.53 -0.2 285.64 0.13 Q 284.76 0.46 283.22 0.46 L 283.22 0.46 Q 281.68 0.46 280.78 0.1 Q 279.88 -0.26 279.43 -0.76 Q 278.98 -1.25 278.86 -1.77 Q 278.75 -2.3 278.75 -2.61 L 278.75 -2.61 L 278.75 -40.09 Q 278.75 -40.93 278.35 -41.56 Q 277.96 -42.18 277.03 -42.18 L 277.03 -42.18 Q 276.54 -42.18 276.17 -42.02 Q 275.81 -41.86 275.4 -41.54 L 275.4 -41.54 Z M 307.8 -25.22 L 307.07 -25.83 Q 307.51 -26.44 308.16 -27.18 Q 308.81 -27.92 309.74 -28.59 Q 310.67 -29.25 311.88 -29.7 Q 313.08 -30.16 314.57 -30.16 L 314.57 -30.16 Q 315.84 -30.16 316.8 -29.82 Q 317.76 -29.49 318.4 -28.92 Q 319.04 -28.35 319.36 -27.58 Q 319.68 -26.81 319.68 -25.94 L 319.68 -25.94 L 319.68 -6.54 Q 319.68 -6.13 319.81 -5.71 Q 319.94 -5.29 320.19 -4.94 Q 320.43 -4.59 320.81 -4.37 Q 321.19 -4.15 321.71 -4.15 L 321.71 -4.15 Q 322.55 -4.15 323.4 -4.59 Q 324.24 -5.03 324.94 -5.62 Q 325.63 -6.22 326.14 -6.8 Q 326.65 -7.38 326.88 -7.67 L 326.88 -7.67 L 326.88 -24.64 Q 326.88 -24.9 326.85 -25.2 Q 326.82 -25.51 326.71 -25.78 Q 326.59 -26.06 326.36 -26.23 Q 326.13 -26.41 325.69 -26.41 L 325.69 -26.41 Q 325.17 -26.41 324.72 -26.02 Q 324.27 -25.62 323.92 -25.22 L 323.92 -25.22 L 323.19 -25.83 Q 323.63 -26.44 324.28 -27.18 Q 324.94 -27.92 325.87 -28.59 Q 326.8 -29.25 328 -29.7 Q 329.21 -30.16 330.69 -30.16 L 330.69 -30.16 Q 331.97 -30.16 332.93 -29.82 Q 333.88 -29.49 334.52 -28.92 Q 335.16 -28.35 335.48 -27.58 Q 335.8 -26.81 335.8 -25.94 L 335.8 -25.94 L 335.8 -5.05 Q 335.8 -4.79 335.83 -4.49 Q 335.86 -4.18 335.98 -3.91 Q 336.09 -3.63 336.32 -3.46 Q 336.56 -3.28 336.99 -3.28 L 336.99 -3.28 Q 337.54 -3.28 337.98 -3.67 Q 338.42 -4.07 338.79 -4.47 L 338.79 -4.47 L 339.49 -3.86 Q 339.06 -3.25 338.4 -2.51 Q 337.75 -1.77 336.82 -1.1 Q 335.89 -0.44 334.7 0.01 Q 333.51 0.46 332 0.46 L 332 0.46 Q 330.72 0.46 329.77 0.13 Q 328.83 -0.2 328.18 -0.77 Q 327.52 -1.34 327.2 -2.11 Q 326.88 -2.88 326.88 -3.75 L 326.88 -3.75 L 326.88 -5.05 Q 325.43 -3.49 323.83 -2.3 L 323.83 -2.3 Q 323.14 -1.77 322.35 -1.28 Q 321.57 -0.78 320.72 -0.39 Q 319.88 0 318.98 0.23 Q 318.08 0.46 317.18 0.46 L 317.18 0.46 Q 315.44 0.46 314.2 -0.16 Q 312.97 -0.78 312.21 -1.8 Q 311.46 -2.82 311.11 -4.1 Q 310.76 -5.37 310.76 -6.65 L 310.76 -6.65 L 310.76 -24.64 Q 310.76 -24.9 310.73 -25.2 Q 310.7 -25.51 310.59 -25.78 Q 310.47 -26.06 310.24 -26.23 Q 310 -26.41 309.57 -26.41 L 309.57 -26.41 Q 309.05 -26.41 308.6 -26.02 Q 308.14 -25.62 307.8 -25.22 L 307.8 -25.22 Z M 340.39 -4.94 L 340.39 -4.94 L 341.41 -5.66 Q 341.79 -5.23 342.37 -4.72 Q 342.95 -4.21 343.66 -3.78 Q 344.37 -3.34 345.18 -3.06 Q 346 -2.79 346.84 -2.79 L 346.84 -2.79 Q 348.93 -2.79 350.27 -3.79 Q 351.61 -4.79 351.61 -6.77 L 351.61 -6.77 Q 351.61 -7.87 350.88 -9.05 Q 350.15 -10.23 349.05 -11.48 Q 347.94 -12.72 346.67 -14.06 Q 345.39 -15.4 344.28 -16.82 Q 343.18 -18.24 342.45 -19.75 Q 341.73 -21.27 341.73 -22.89 L 341.73 -22.89 Q 341.73 -24.72 342.47 -26.09 Q 343.21 -27.45 344.44 -28.35 Q 345.68 -29.25 347.26 -29.7 Q 348.85 -30.16 350.53 -30.16 L 350.53 -30.16 Q 352.48 -30.16 354.07 -29.81 Q 355.67 -29.46 356.82 -28.75 Q 357.97 -28.03 358.59 -26.96 Q 359.22 -25.88 359.22 -24.46 L 359.22 -24.46 Q 359.22 -23.36 358.49 -22.54 Q 357.76 -21.73 356.46 -21.73 L 356.46 -21.73 Q 355.21 -21.73 354.55 -22.27 Q 353.9 -22.81 353.9 -23.73 L 353.9 -23.73 Q 353.9 -24.34 354.21 -24.69 Q 354.51 -25.04 354.89 -25.26 Q 355.27 -25.48 355.57 -25.64 Q 355.88 -25.8 355.88 -26.06 L 355.88 -26.06 Q 355.88 -26.87 355 -27.35 Q 354.13 -27.83 352.77 -27.83 L 352.77 -27.83 Q 352.1 -27.83 351.5 -27.66 Q 350.91 -27.48 350.44 -27.09 Q 349.98 -26.7 349.72 -26.1 Q 349.46 -25.51 349.46 -24.69 L 349.46 -24.69 Q 349.46 -23.56 350.28 -22.44 Q 351.11 -21.32 352.35 -20.12 Q 353.58 -18.91 355.02 -17.62 Q 356.46 -16.33 357.69 -14.89 Q 358.93 -13.45 359.75 -11.82 Q 360.58 -10.2 360.58 -8.34 L 360.58 -8.34 Q 360.58 -6.25 359.87 -4.62 Q 359.16 -2.99 357.84 -1.86 Q 356.51 -0.73 354.64 -0.13 Q 352.77 0.46 350.47 0.46 L 350.47 0.46 Q 348.47 0.46 346.84 -0.1 Q 345.21 -0.67 343.95 -1.5 Q 342.69 -2.32 341.79 -3.25 Q 340.89 -4.18 340.39 -4.94 Z M 363.02 -26.47 L 362.41 -27.19 Q 363.08 -27.74 363.91 -28.28 Q 364.74 -28.82 365.69 -29.23 Q 366.65 -29.63 367.76 -29.89 Q 368.86 -30.16 370.08 -30.16 L 370.08 -30.16 Q 371.97 -30.16 373.02 -29.65 Q 374.06 -29.14 374.56 -28.4 Q 375.05 -27.66 375.15 -26.81 Q 375.25 -25.97 375.25 -25.33 L 375.25 -25.33 L 375.25 -2.61 Q 375.25 -2.24 375.12 -1.7 Q 374.99 -1.16 374.51 -0.68 Q 374.03 -0.2 373.13 0.13 Q 372.23 0.46 370.69 0.46 L 370.69 0.46 Q 369.15 0.46 368.28 0.1 Q 367.41 -0.26 366.97 -0.76 Q 366.54 -1.25 366.44 -1.77 Q 366.33 -2.3 366.33 -2.61 L 366.33 -2.61 L 366.33 -25.04 Q 366.33 -25.88 365.94 -26.51 Q 365.55 -27.13 364.62 -27.13 L 364.62 -27.13 Q 364.13 -27.13 363.78 -26.96 Q 363.43 -26.79 363.02 -26.47 L 363.02 -26.47 Z M 365.43 -36.78 L 365.43 -36.78 Q 365.43 -37.59 365.8 -38.33 Q 366.16 -39.07 366.81 -39.63 Q 367.47 -40.18 368.32 -40.5 Q 369.18 -40.82 370.2 -40.82 L 370.2 -40.82 Q 371.19 -40.82 372.04 -40.5 Q 372.9 -40.18 373.54 -39.63 Q 374.18 -39.07 374.54 -38.33 Q 374.9 -37.59 374.9 -36.78 L 374.9 -36.78 Q 374.9 -35.94 374.54 -35.21 Q 374.18 -34.48 373.54 -33.95 Q 372.9 -33.41 372.04 -33.09 Q 371.19 -32.77 370.2 -32.77 L 370.2 -32.77 Q 369.18 -32.77 368.32 -33.09 Q 367.47 -33.41 366.81 -33.95 Q 366.16 -34.48 365.8 -35.21 Q 365.43 -35.94 365.43 -36.78 Z M 380.42 -7.5 L 380.42 -7.5 Q 380.42 -10.14 381.47 -11.82 Q 382.52 -13.51 384.21 -14.66 Q 385.91 -15.8 388.08 -16.62 Q 390.24 -17.43 392.51 -18.33 L 392.51 -18.33 Q 394.19 -19 394.96 -20.32 Q 395.73 -21.64 395.73 -23.04 L 395.73 -23.04 Q 395.73 -25.19 394.47 -26.48 Q 393.21 -27.77 391.03 -27.77 L 391.03 -27.77 Q 390.04 -27.77 389.2 -27.54 Q 388.35 -27.31 387.74 -26.96 Q 387.13 -26.61 386.79 -26.19 Q 386.44 -25.77 386.44 -25.39 L 386.44 -25.39 Q 386.44 -24.95 386.89 -24.77 Q 387.34 -24.58 387.89 -24.33 Q 388.44 -24.08 388.89 -23.63 Q 389.34 -23.18 389.34 -22.25 L 389.34 -22.25 Q 389.34 -21.64 389.1 -21.13 Q 388.85 -20.63 388.43 -20.23 Q 388.01 -19.84 387.44 -19.62 Q 386.87 -19.41 386.26 -19.41 L 386.26 -19.41 Q 384.64 -19.41 383.63 -20.51 Q 382.63 -21.61 382.63 -23.44 L 382.63 -23.44 Q 382.63 -25.22 383.56 -26.48 Q 384.49 -27.74 385.99 -28.56 Q 387.48 -29.37 389.37 -29.76 Q 391.26 -30.16 393.15 -30.16 L 393.15 -30.16 Q 395.41 -30.16 397.48 -29.66 Q 399.54 -29.17 401.12 -28.09 Q 402.71 -27.02 403.65 -25.36 Q 404.59 -23.71 404.59 -21.35 L 404.59 -21.35 L 404.59 -4.94 Q 404.59 -4.68 404.62 -4.36 Q 404.65 -4.04 404.77 -3.78 Q 404.88 -3.52 405.12 -3.34 Q 405.35 -3.17 405.79 -3.17 L 405.79 -3.17 Q 406.31 -3.17 406.76 -3.56 Q 407.21 -3.95 407.56 -4.36 L 407.56 -4.36 L 408.28 -3.75 Q 407.85 -3.14 407.24 -2.41 Q 406.63 -1.68 405.76 -1.05 Q 404.88 -0.41 403.72 0.03 Q 402.56 0.46 401.08 0.46 L 401.08 0.46 Q 399.25 0.46 397.83 -0.62 Q 396.4 -1.71 395.97 -3.98 L 395.97 -3.98 Q 395.04 -2.73 394.03 -1.89 Q 393.03 -1.05 391.99 -0.52 Q 390.94 0 389.88 0.23 Q 388.82 0.46 387.74 0.46 L 387.74 0.46 Q 386.35 0.46 385.04 0.03 Q 383.74 -0.41 382.7 -1.35 Q 381.67 -2.3 381.05 -3.81 Q 380.42 -5.32 380.42 -7.5 Z M 388.94 -9.41 L 388.94 -9.41 Q 388.94 -7.73 389.18 -6.62 Q 389.43 -5.52 389.85 -4.87 Q 390.27 -4.21 390.82 -3.95 Q 391.38 -3.69 391.99 -3.69 L 391.99 -3.69 Q 392.74 -3.69 393.41 -4.08 Q 394.08 -4.47 394.57 -5.08 Q 395.07 -5.69 395.36 -6.45 Q 395.65 -7.2 395.65 -7.96 L 395.65 -7.96 L 395.65 -15.05 Q 395.65 -15.77 395.18 -16.15 Q 394.72 -16.53 393.99 -16.53 L 393.99 -16.53 Q 392.97 -16.53 392.06 -16.07 Q 391.14 -15.6 390.45 -14.7 Q 389.75 -13.8 389.34 -12.48 Q 388.94 -11.16 388.94 -9.41 Z M 409.16 -4.94 L 409.16 -4.94 L 410.17 -5.66 Q 410.55 -5.23 411.13 -4.72 Q 411.71 -4.21 412.42 -3.78 Q 413.14 -3.34 413.95 -3.06 Q 414.76 -2.79 415.6 -2.79 L 415.6 -2.79 Q 417.7 -2.79 419.03 -3.79 Q 420.37 -4.79 420.37 -6.77 L 420.37 -6.77 Q 420.37 -7.87 419.64 -9.05 Q 418.92 -10.23 417.81 -11.48 Q 416.71 -12.72 415.43 -14.06 Q 414.15 -15.4 413.05 -16.82 Q 411.94 -18.24 411.22 -19.75 Q 410.49 -21.27 410.49 -22.89 L 410.49 -22.89 Q 410.49 -24.72 411.23 -26.09 Q 411.97 -27.45 413.21 -28.35 Q 414.44 -29.25 416.03 -29.7 Q 417.61 -30.16 419.29 -30.16 L 419.29 -30.16 Q 421.24 -30.16 422.84 -29.81 Q 424.44 -29.46 425.58 -28.75 Q 426.73 -28.03 427.36 -26.96 Q 427.98 -25.88 427.98 -24.46 L 427.98 -24.46 Q 427.98 -23.36 427.25 -22.54 Q 426.53 -21.73 425.22 -21.73 L 425.22 -21.73 Q 423.97 -21.73 423.32 -22.27 Q 422.66 -22.81 422.66 -23.73 L 422.66 -23.73 Q 422.66 -24.34 422.97 -24.69 Q 423.27 -25.04 423.65 -25.26 Q 424.03 -25.48 424.33 -25.64 Q 424.64 -25.8 424.64 -26.06 L 424.64 -26.06 Q 424.64 -26.87 423.77 -27.35 Q 422.9 -27.83 421.53 -27.83 L 421.53 -27.83 Q 420.86 -27.83 420.27 -27.66 Q 419.67 -27.48 419.21 -27.09 Q 418.74 -26.7 418.48 -26.1 Q 418.22 -25.51 418.22 -24.69 L 418.22 -24.69 Q 418.22 -23.56 419.05 -22.44 Q 419.88 -21.32 421.11 -20.12 Q 422.34 -18.91 423.78 -17.62 Q 425.22 -16.33 426.46 -14.89 Q 427.69 -13.45 428.52 -11.82 Q 429.35 -10.2 429.35 -8.34 L 429.35 -8.34 Q 429.35 -6.25 428.63 -4.62 Q 427.92 -2.99 426.6 -1.86 Q 425.28 -0.73 423.4 -0.13 Q 421.53 0.46 419.24 0.46 L 419.24 0.46 Q 417.23 0.46 415.6 -0.1 Q 413.98 -0.67 412.71 -1.5 Q 411.45 -2.32 410.55 -3.25 Q 409.65 -4.18 409.16 -4.94 Z M 434.58 -27.66 L 431.32 -27.66 L 431.32 -29.75 Q 432.13 -29.75 433.59 -30.17 Q 435.04 -30.59 436.57 -31.58 Q 438.09 -32.57 439.4 -34.22 Q 440.7 -35.88 441.26 -38.32 L 441.26 -38.32 L 443.58 -38.32 L 443.58 -29.75 L 448.32 -29.75 Q 450.64 -29.75 450.64 -30.53 L 450.64 -30.53 Q 450.64 -30.82 450.35 -30.92 Q 450.06 -31.03 449.7 -31.19 Q 449.33 -31.35 449.04 -31.64 Q 448.75 -31.93 448.75 -32.6 L 448.75 -32.6 Q 448.75 -33.41 449.26 -33.87 Q 449.77 -34.34 450.58 -34.34 L 450.58 -34.34 Q 451.11 -34.34 451.5 -34.12 Q 451.89 -33.9 452.15 -33.54 Q 452.41 -33.18 452.54 -32.71 Q 452.67 -32.25 452.67 -31.78 L 452.67 -31.78 Q 452.67 -29.89 451.58 -28.78 Q 450.5 -27.66 448.08 -27.66 L 448.08 -27.66 L 443.58 -27.66 L 443.58 -6.19 Q 443.58 -4.65 444.16 -4.05 Q 444.74 -3.46 445.76 -3.46 L 445.76 -3.46 Q 446.54 -3.46 447.15 -3.89 Q 447.76 -4.33 448.2 -4.88 L 448.2 -4.88 Q 448.72 -5.49 449.1 -6.3 L 449.1 -6.3 L 450 -5.9 Q 449.57 -4.97 448.97 -3.86 Q 448.37 -2.76 447.39 -1.82 Q 446.4 -0.87 444.9 -0.23 Q 443.41 0.41 441.14 0.41 L 441.14 0.41 Q 439.86 0.41 438.69 0.03 Q 437.51 -0.35 436.59 -1.16 Q 435.68 -1.98 435.13 -3.2 Q 434.58 -4.42 434.58 -6.13 L 434.58 -6.13 L 434.58 -27.66 Z M 462.2 7.2 L 462.2 7.2 Q 462.2 6.68 462.35 6.14 Q 462.49 5.61 462.78 5.17 Q 463.07 4.74 463.5 4.44 Q 463.92 4.15 464.44 4.15 L 464.44 4.15 Q 464.76 4.15 465.01 4.47 Q 465.25 4.79 465.51 5.27 Q 465.78 5.75 466.11 6.3 Q 466.44 6.86 466.98 7.34 Q 467.52 7.81 468.27 8.13 Q 469.03 8.45 470.16 8.45 L 470.16 8.45 Q 472.4 8.45 474.01 7.64 Q 475.62 6.83 476.67 5.35 Q 477.72 3.86 478.22 1.82 Q 478.73 -0.23 478.73 -2.67 L 478.73 -2.67 L 478.73 -19.7 L 473.45 -19.7 L 473.45 -22.25 L 478.73 -22.25 L 478.73 -38.78 Q 478.73 -39.42 478.59 -39.8 Q 478.44 -40.18 478.18 -40.4 Q 477.92 -40.61 477.56 -40.69 Q 477.19 -40.76 476.76 -40.76 L 476.76 -40.76 Q 476.12 -40.76 475.17 -40.56 Q 474.23 -40.35 473.18 -39.95 Q 472.14 -39.54 471.08 -38.94 Q 470.02 -38.35 469.19 -37.59 Q 468.36 -36.84 467.84 -35.91 Q 467.32 -34.98 467.32 -33.9 L 467.32 -33.9 Q 467.32 -32.97 467.56 -32.42 Q 467.81 -31.87 468.13 -31.59 Q 468.45 -31.32 468.78 -31.24 Q 469.12 -31.17 469.26 -31.17 L 469.26 -31.17 Q 469.99 -31.17 470.45 -31.42 Q 470.92 -31.67 471.3 -31.94 Q 471.67 -32.22 472.01 -32.46 Q 472.34 -32.71 472.78 -32.71 L 472.78 -32.71 Q 473.13 -32.71 473.52 -32.55 Q 473.91 -32.39 474.24 -32.04 Q 474.58 -31.69 474.81 -31.13 Q 475.04 -30.56 475.04 -29.75 L 475.04 -29.75 Q 475.04 -28.59 474.59 -27.74 Q 474.14 -26.9 473.43 -26.33 Q 472.72 -25.77 471.8 -25.49 Q 470.89 -25.22 469.99 -25.22 L 469.99 -25.22 Q 468.59 -25.22 467.48 -25.7 Q 466.36 -26.18 465.57 -27.02 Q 464.79 -27.86 464.38 -28.99 Q 463.97 -30.13 463.97 -31.4 L 463.97 -31.4 Q 463.97 -33.41 464.7 -35.08 Q 465.43 -36.75 466.69 -38.09 Q 467.95 -39.42 469.65 -40.42 Q 471.35 -41.43 473.33 -42.1 Q 475.3 -42.76 477.45 -43.1 Q 479.6 -43.43 481.75 -43.43 L 481.75 -43.43 Q 484.14 -43.43 485.46 -42.98 Q 486.78 -42.53 487.4 -41.89 Q 488.03 -41.25 488.15 -40.56 Q 488.26 -39.86 488.26 -39.39 L 488.26 -39.39 L 488.26 -22.25 L 498.95 -22.25 L 498.95 -36.23 Q 498.95 -41.02 500.2 -44.39 Q 501.45 -47.76 503.43 -49.9 Q 505.4 -52.03 507.84 -53 Q 510.28 -53.98 512.69 -53.98 L 512.69 -53.98 Q 514.35 -53.98 515.85 -53.73 Q 517.34 -53.48 518.46 -52.99 Q 519.58 -52.5 520.25 -51.75 Q 520.91 -51.01 520.91 -50.03 L 520.91 -50.03 Q 520.91 -49.59 520.78 -49.2 Q 520.65 -48.81 520.42 -48.49 Q 520.19 -48.17 519.88 -47.98 Q 519.58 -47.79 519.26 -47.79 L 519.26 -47.79 Q 518.74 -47.79 518.33 -48.11 Q 517.92 -48.43 517.56 -48.91 Q 517.2 -49.39 516.85 -49.95 Q 516.5 -50.52 516.06 -51 Q 515.63 -51.48 515.08 -51.8 Q 514.52 -52.12 513.77 -52.12 L 513.77 -52.12 Q 512 -52.12 510.95 -51.14 Q 509.9 -50.17 509.35 -48.3 Q 508.8 -46.42 508.64 -43.63 Q 508.48 -40.85 508.48 -37.24 L 508.48 -37.24 L 508.48 -22.25 L 514.32 -22.25 L 514.32 -19.7 L 508.48 -19.7 L 508.48 -2.03 Q 508.48 -1.19 508.84 -0.68 Q 509.21 -0.17 509.96 -0.17 L 509.96 -0.17 Q 510.78 -0.17 511.47 -0.46 Q 512.17 -0.76 512.69 -1.02 L 512.69 -1.02 L 513.19 0.06 Q 512.55 0.49 511.69 0.97 Q 510.83 1.45 509.8 1.87 Q 508.77 2.3 507.59 2.57 Q 506.42 2.85 505.14 2.85 L 505.14 2.85 Q 503.16 2.85 501.94 2.32 Q 500.72 1.8 500.06 0.94 Q 499.39 0.09 499.17 -0.99 Q 498.95 -2.06 498.95 -3.17 L 498.95 -3.17 L 498.95 -19.7 L 488.26 -19.7 L 488.26 -5.23 Q 488.26 -1.28 486.82 1.66 Q 485.39 4.59 482.89 6.55 Q 480.39 8.51 477 9.49 Q 473.62 10.46 469.76 10.46 L 469.76 10.46 Q 468.27 10.46 466.91 10.21 Q 465.54 9.96 464.5 9.53 Q 463.45 9.09 462.83 8.5 Q 462.2 7.9 462.2 7.2 Z M 516.59 -25.22 L 515.86 -25.83 Q 516.3 -26.44 516.95 -27.18 Q 517.6 -27.92 518.53 -28.59 Q 519.46 -29.25 520.67 -29.7 Q 521.87 -30.16 523.36 -30.16 L 523.36 -30.16 Q 524.63 -30.16 525.59 -29.82 Q 526.55 -29.49 527.19 -28.92 Q 527.83 -28.35 528.15 -27.58 Q 528.47 -26.81 528.47 -25.94 L 528.47 -25.94 L 528.47 -6.54 Q 528.47 -6.13 528.6 -5.71 Q 528.73 -5.29 528.98 -4.94 Q 529.22 -4.59 529.6 -4.37 Q 529.98 -4.15 530.5 -4.15 L 530.5 -4.15 Q 531.34 -4.15 532.19 -4.59 Q 533.03 -5.03 533.73 -5.62 Q 534.42 -6.22 534.93 -6.8 Q 535.44 -7.38 535.67 -7.67 L 535.67 -7.67 L 535.67 -24.64 Q 535.67 -24.9 535.64 -25.2 Q 535.61 -25.51 535.5 -25.78 Q 535.38 -26.06 535.15 -26.23 Q 534.92 -26.41 534.48 -26.41 L 534.48 -26.41 Q 533.96 -26.41 533.51 -26.02 Q 533.06 -25.62 532.71 -25.22 L 532.71 -25.22 L 531.98 -25.83 Q 532.42 -26.44 533.07 -27.18 Q 533.73 -27.92 534.66 -28.59 Q 535.59 -29.25 536.79 -29.7 Q 538 -30.16 539.48 -30.16 L 539.48 -30.16 Q 540.76 -30.16 541.72 -29.82 Q 542.67 -29.49 543.31 -28.92 Q 543.95 -28.35 544.27 -27.58 Q 544.59 -26.81 544.59 -25.94 L 544.59 -25.94 L 544.59 -5.05 Q 544.59 -4.79 544.62 -4.49 Q 544.65 -4.18 544.77 -3.91 Q 544.88 -3.63 545.11 -3.46 Q 545.35 -3.28 545.78 -3.28 L 545.78 -3.28 Q 546.33 -3.28 546.77 -3.67 Q 547.21 -4.07 547.58 -4.47 L 547.58 -4.47 L 548.28 -3.86 Q 547.85 -3.25 547.19 -2.51 Q 546.54 -1.77 545.61 -1.1 Q 544.68 -0.44 543.49 0.01 Q 542.3 0.46 540.79 0.46 L 540.79 0.46 Q 539.51 0.46 538.56 0.13 Q 537.62 -0.2 536.97 -0.77 Q 536.31 -1.34 535.99 -2.11 Q 535.67 -2.88 535.67 -3.75 L 535.67 -3.75 L 535.67 -5.05 Q 534.22 -3.49 532.62 -2.3 L 532.62 -2.3 Q 531.93 -1.77 531.14 -1.28 Q 530.36 -0.78 529.51 -0.39 Q 528.67 0 527.77 0.23 Q 526.87 0.46 525.97 0.46 L 525.97 0.46 Q 524.23 0.46 522.99 -0.16 Q 521.76 -0.78 521 -1.8 Q 520.25 -2.82 519.9 -4.1 Q 519.55 -5.37 519.55 -6.65 L 519.55 -6.65 L 519.55 -24.64 Q 519.55 -24.9 519.52 -25.2 Q 519.49 -25.51 519.38 -25.78 Q 519.26 -26.06 519.03 -26.23 Q 518.79 -26.41 518.36 -26.41 L 518.36 -26.41 Q 517.84 -26.41 517.39 -26.02 Q 516.93 -25.62 516.59 -25.22 L 516.59 -25.22 Z M 547.93 -41.54 L 547.35 -42.24 Q 548.02 -42.79 548.85 -43.33 Q 549.68 -43.87 550.63 -44.27 Q 551.59 -44.68 552.7 -44.94 Q 553.8 -45.2 555.02 -45.2 L 555.02 -45.2 Q 556.71 -45.2 557.74 -44.7 Q 558.77 -44.19 559.31 -43.45 Q 559.84 -42.71 560.02 -41.85 Q 560.19 -40.99 560.19 -40.26 L 560.19 -40.26 L 560.19 -27.31 Q 560.54 -27.63 561.09 -28.11 Q 561.64 -28.59 562.49 -29.05 Q 563.33 -29.52 564.51 -29.84 Q 565.68 -30.16 567.28 -30.16 L 567.28 -30.16 Q 569.14 -30.16 571 -29.3 Q 572.86 -28.44 574.34 -26.61 Q 575.82 -24.78 576.75 -21.9 Q 577.68 -19.03 577.68 -14.99 L 577.68 -14.99 Q 577.68 -11.82 576.82 -9.01 Q 575.97 -6.19 574.28 -4.08 Q 572.6 -1.98 570.07 -0.76 Q 567.54 0.46 564.2 0.46 L 564.2 0.46 Q 560.57 0.46 558.09 -0.71 Q 555.6 -1.89 554.09 -3.88 Q 552.58 -5.87 551.93 -8.51 Q 551.27 -11.16 551.27 -14.09 L 551.27 -14.09 L 551.27 -40.09 Q 551.27 -40.93 550.88 -41.56 Q 550.49 -42.18 549.56 -42.18 L 549.56 -42.18 Q 549.07 -42.18 548.7 -42.02 Q 548.34 -41.86 547.93 -41.54 L 547.93 -41.54 Z M 560.19 -23.15 L 560.19 -14.47 Q 560.19 -8.13 561.25 -5.26 Q 562.31 -2.38 564.38 -2.38 L 564.38 -2.38 Q 566.55 -2.38 567.57 -5.32 Q 568.59 -8.25 568.59 -14.47 L 568.59 -14.47 Q 568.59 -16.99 568.33 -19.22 Q 568.06 -21.44 567.48 -23.11 Q 566.9 -24.78 566 -25.75 Q 565.1 -26.73 563.82 -26.73 L 563.82 -26.73 Q 562.84 -26.73 562.15 -26.25 Q 561.47 -25.77 561.03 -25.16 Q 560.6 -24.55 560.4 -23.95 Q 560.19 -23.36 560.19 -23.15 L 560.19 -23.15 Z" stroke-linecap="round" />
</g>
</g>
</g>
</svg>